<svg xmlns="http://www.w3.org/2000/svg" xmlns:xlink="http://www.w3.org/1999/xlink" version="1.0" x="0" y="0" width="2400" height="1341.345638151398" viewBox="80.19400848388672 74.80796875 179.61198303222656 100.3840625" preserveAspectRatio="xMidYMid meet" color-interpolation-filters="sRGB"><g><defs><linearGradient id="92" x1="0%" y1="0%" x2="100%" y2="0%"><stop offset="0%" stop-color="#fa71cd"></stop> <stop offset="100%" stop-color="#9b59b6"></stop></linearGradient><linearGradient id="93" x1="0%" y1="0%" x2="100%" y2="0%"><stop offset="0%" stop-color="#f9d423"></stop> <stop offset="100%" stop-color="#f83600"></stop></linearGradient><linearGradient id="94" x1="0%" y1="0%" x2="100%" y2="0%"><stop offset="0%" stop-color="#0064d2"></stop> <stop offset="100%" stop-color="#1cb0f6"></stop></linearGradient><linearGradient id="95" x1="0%" y1="0%" x2="100%" y2="0%"><stop offset="0%" stop-color="#f00978"></stop> <stop offset="100%" stop-color="#3f51b1"></stop></linearGradient><linearGradient id="96" x1="0%" y1="0%" x2="100%" y2="0%"><stop offset="0%" stop-color="#7873f5"></stop> <stop offset="100%" stop-color="#ec77ab"></stop></linearGradient><linearGradient id="97" x1="0%" y1="0%" x2="100%" y2="0%"><stop offset="0%" stop-color="#f9d423"></stop> <stop offset="100%" stop-color="#e14fad"></stop></linearGradient><linearGradient id="98" x1="0%" y1="0%" x2="100%" y2="0%"><stop offset="0%" stop-color="#009efd"></stop> <stop offset="100%" stop-color="#2af598"></stop></linearGradient><linearGradient id="99" x1="0%" y1="0%" x2="100%" y2="0%"><stop offset="0%" stop-color="#ffcc00"></stop> <stop offset="100%" stop-color="#00b140"></stop></linearGradient><linearGradient id="100" x1="0%" y1="0%" x2="100%" y2="0%"><stop offset="0%" stop-color="#d51007"></stop> <stop offset="100%" stop-color="#ff8177"></stop></linearGradient><linearGradient id="102" x1="0%" y1="0%" x2="100%" y2="0%"><stop offset="0%" stop-color="#a2b6df"></stop> <stop offset="100%" stop-color="#0c3483"></stop></linearGradient><linearGradient id="103" x1="0%" y1="0%" x2="100%" y2="0%"><stop offset="0%" stop-color="#7ac5d8"></stop> <stop offset="100%" stop-color="#eea2a2"></stop></linearGradient><linearGradient id="104" x1="0%" y1="0%" x2="100%" y2="0%"><stop offset="0%" stop-color="#00ecbc"></stop> <stop offset="100%" stop-color="#007adf"></stop></linearGradient><linearGradient id="105" x1="0%" y1="0%" x2="100%" y2="0%"><stop offset="0%" stop-color="#b88746"></stop> <stop offset="100%" stop-color="#fdf5a6"></stop></linearGradient></defs><g fill="#333" class="icon-text-wrapper icon-svg-group iconsvg" transform="translate(81.95491027832031,76.5688705444336)"><g class="iconsvg-imagesvg" transform="translate(58.04508972167969,0)"><g><rect fill="#333" fill-opacity="0" stroke-width="2" x="0" y="0" width="60" height="66.62225183211193" class="image-rect"></rect> <svg x="0" y="0" width="60" height="66.62225183211193" filtersec="colorsb5697952589" class="image-svg-svg primary" style="overflow: visible;"><svg xmlns="http://www.w3.org/2000/svg" viewBox="0 0 90.05999755859375 100"><path fill="#2244bf" d="M90.06 16.05L66.75 39.37 74.01 0l16.05 16.05z"></path><path fill="#2244bf" d="M73.76 7.04v22.79H11.02l4.15-22.79h58.59zM79.11 76.68L55.79 100l7.26-39.37 16.06 16.05z"></path><path fill="#2244bf" d="M62.8 67.67v22.8H0l4.14-22.8H62.8z"></path><path fill="#00a4ff" d="M49.18 38.59l-3.66 20.06H5.79l.1-.58 3.54-19.48h39.75z"></path></svg></svg> </g></g> <g transform="translate(0,73.62225341796875)"><g fill-rule="" class="tp-name iconsvg-namesvg"><g transform="scale(1)"><g><path d="M3.72-20.66L17.41-20.66 17.41-22.28 2.04-22.28 2.04 0 17.79 0 17.79-1.66 3.72-1.66 3.72-10.44 16.77-10.44 16.77-12 3.72-12ZM28.39-14.48C32.02-14.48 34.82-11.81 34.82-7.89 34.82-3.98 32.08-1.27 28.39-1.27 24.86-1.27 21.96-3.5 21.96-7.86 21.96-12.29 24.86-14.48 28.39-14.48ZM34.85-22.28L34.85-12.29C33.58-14.83 31.03-15.98 28.33-15.98 23.94-15.98 20.44-13.05 20.44-7.86 20.44-2.64 23.9 0.25 28.3 0.25 30.97 0.25 33.55-1.08 34.85-3.47L34.85 0 36.38 0 36.38-22.28ZM54.43-15.72L54.43-12.29C53.12-14.74 50.55-15.92 48-15.92 43.61-15.92 40.01-12.67 40.01-7.86 40.01-3.06 43.61 0.25 48 0.25 50.55 0.25 52.9-0.89 54.43-3.34L54.43 0 55.99 0C55.99-5.25 55.99-10.47 55.99-15.72ZM48-14.42C56.75-14.42 56.75-1.27 48-1.27 44.44-1.27 41.57-3.92 41.57-7.86 41.57-11.81 44.44-14.42 48-14.42ZM72.41-3.25C71.14-1.97 69.42-1.31 67.73-1.31 64.17-1.31 61.18-3.63 61.18-7.86 61.18-12.1 64.17-14.42 67.73-14.42 69.42-14.42 71.17-13.81 72.45-12.54L73.46-13.53C71.87-15.09 69.8-15.88 67.73-15.88 63.18-15.88 59.65-12.83 59.65-7.86 59.65-2.9 63.31 0.16 67.73 0.16 69.8 0.16 71.87-0.6 73.46-2.2ZM84.22 0.22C88.65 0.22 92.21-2.83 92.21-7.83 92.21-12.83 88.65-16.01 84.22-16.01 79.8-16.01 76.23-12.83 76.23-7.83 76.23-2.83 79.8 0.22 84.22 0.22ZM84.22-1.31C80.66-1.31 77.76-3.76 77.76-7.83 77.76-11.9 80.66-14.55 84.22-14.55 87.79-14.55 90.68-11.9 90.68-7.83 90.68-3.76 87.79-1.31 84.22-1.31Z" transform="translate(-2.0399999618530273, 22.729999542236328)"></path></g> <g fill="#00A4FF" transform="translate(93.16999816894531,0)"><g transform="scale(1)"><path d="M18.33-5.7C16.87-4.23 14.67-3.44 12.73-3.44 7.23-3.44 5.09-7.29 5.06-10.98 5.03-14.71 7.35-18.72 12.73-18.72 14.67-18.72 16.65-18.05 18.11-16.62L20.91-19.32C18.62-21.58 15.76-22.73 12.73-22.73 4.68-22.73 0.89-16.81 0.92-10.98 0.95-5.19 4.46 0.51 12.73 0.51 15.95 0.51 18.91-0.54 21.2-2.8ZM22.95-22.25L22.95 0 26.8 0 26.8-22.25ZM37.59-16.01C32.59-16.01 29.47-12.32 29.47-7.83 29.47-3.31 32.53 0.35 37.62 0.35 42.72 0.35 45.8-3.31 45.8-7.83 45.8-12.32 42.59-16.01 37.59-16.01ZM37.62-12.48C40.23-12.48 41.89-10.19 41.89-7.83 41.89-5.44 40.46-3.21 37.62-3.21 34.79-3.21 33.36-5.44 33.36-7.83 33.36-10.19 34.82-12.48 37.62-12.48ZM48.57-15.69L48.57-7.45C48.57-2.58 51.31 0.25 55.07 0.25 57.26 0.25 58.76-0.51 60.38-2.1L60.64 0.03 64.11 0.03 64.11-15.69 60.25-15.69 60.25-7.67C60.25-5.28 58.63-3.28 56.24-3.28 53.76-3.28 52.46-5.09 52.46-7.48L52.46-15.69ZM75.15-12.45C77.6-12.45 79.7-10.6 79.7-7.86 79.7-5.03 77.6-3.25 75.15-3.25 72.67-3.25 70.69-5.12 70.69-7.86 70.69-10.69 72.67-12.45 75.15-12.45ZM79.96-22.25L79.96-13.56C79.03-15.18 76.46-16.07 74.8-16.07 70.22-16.07 66.81-13.27 66.81-7.86 66.81-2.71 70.28 0.35 74.9 0.35 76.81 0.35 78.75-0.29 79.96-2.16L80.21 0 83.84 0 83.84-22.25Z" transform="translate(-0.919825553894043, 22.729999542236328)"></path></g></g></g></g> </g></g><defs v-gra="od"></defs></g></svg>