<svg xmlns="http://www.w3.org/2000/svg" xmlns:xlink="http://www.w3.org/1999/xlink" version="1.0" x="0" y="0" width="2400" height="2086.771313714924" viewBox="102.34340591430664 66.1734001159668 135.3131881713867 117.6531997680664" preserveAspectRatio="xMidYMid meet" color-interpolation-filters="sRGB"><g><defs><linearGradient id="92" x1="0%" y1="0%" x2="100%" y2="0%"><stop offset="0%" stop-color="#fa71cd"></stop> <stop offset="100%" stop-color="#9b59b6"></stop></linearGradient><linearGradient id="93" x1="0%" y1="0%" x2="100%" y2="0%"><stop offset="0%" stop-color="#f9d423"></stop> <stop offset="100%" stop-color="#f83600"></stop></linearGradient><linearGradient id="94" x1="0%" y1="0%" x2="100%" y2="0%"><stop offset="0%" stop-color="#0064d2"></stop> <stop offset="100%" stop-color="#1cb0f6"></stop></linearGradient><linearGradient id="95" x1="0%" y1="0%" x2="100%" y2="0%"><stop offset="0%" stop-color="#f00978"></stop> <stop offset="100%" stop-color="#3f51b1"></stop></linearGradient><linearGradient id="96" x1="0%" y1="0%" x2="100%" y2="0%"><stop offset="0%" stop-color="#7873f5"></stop> <stop offset="100%" stop-color="#ec77ab"></stop></linearGradient><linearGradient id="97" x1="0%" y1="0%" x2="100%" y2="0%"><stop offset="0%" stop-color="#f9d423"></stop> <stop offset="100%" stop-color="#e14fad"></stop></linearGradient><linearGradient id="98" x1="0%" y1="0%" x2="100%" y2="0%"><stop offset="0%" stop-color="#009efd"></stop> <stop offset="100%" stop-color="#2af598"></stop></linearGradient><linearGradient id="99" x1="0%" y1="0%" x2="100%" y2="0%"><stop offset="0%" stop-color="#ffcc00"></stop> <stop offset="100%" stop-color="#00b140"></stop></linearGradient><linearGradient id="100" x1="0%" y1="0%" x2="100%" y2="0%"><stop offset="0%" stop-color="#d51007"></stop> <stop offset="100%" stop-color="#ff8177"></stop></linearGradient><linearGradient id="102" x1="0%" y1="0%" x2="100%" y2="0%"><stop offset="0%" stop-color="#a2b6df"></stop> <stop offset="100%" stop-color="#0c3483"></stop></linearGradient><linearGradient id="103" x1="0%" y1="0%" x2="100%" y2="0%"><stop offset="0%" stop-color="#7ac5d8"></stop> <stop offset="100%" stop-color="#eea2a2"></stop></linearGradient><linearGradient id="104" x1="0%" y1="0%" x2="100%" y2="0%"><stop offset="0%" stop-color="#00ecbc"></stop> <stop offset="100%" stop-color="#007adf"></stop></linearGradient><linearGradient id="105" x1="0%" y1="0%" x2="100%" y2="0%"><stop offset="0%" stop-color="#b88746"></stop> <stop offset="100%" stop-color="#fdf5a6"></stop></linearGradient></defs><g class="iconmbgsvg" transform="translate(103.67000603675842,67.5)"><g fill="#ffffff" hollow-target="textRect"><g transform="translate(8.829994201660156,0)" mask="url(#abdfceeb-6311-4260-8ca9-e8715ea8352f)"><g><rect fill="#ffffff" fill-opacity="0" stroke-width="2" x="0" y="0" width="115" height="115" class="image-rect"></rect> <svg filter="url(#colors8725566100)" x="0" y="0" width="115" height="115" filtersec="colorsf9631822003" class="image-svg-svg primary" style="overflow: visible;"><svg xmlns="http://www.w3.org/2000/svg" xmlns:xlink="http://www.w3.org/1999/xlink" fill="#000000" version="1.1" x="0px" y="0px" viewBox="40 40 520 520" style="enable-background:new 0 0 600 600;" xml:space="preserve"><g><g><g><path d="M300,560c-69.448,0-134.74-27.045-183.848-76.152C67.044,434.74,40,369.448,40,300     c0-69.449,27.044-134.74,76.152-183.848C165.26,67.044,230.551,40,300,40c69.448,0,134.74,27.045,183.848,76.152     S560,230.551,560,300c0,69.448-27.045,134.74-76.152,183.848S369.448,560,300,560z M300,80C178.691,80,80,178.691,80,300     s98.691,220,220,220s220-98.691,220-220S421.309,80,300,80z"></path></g><g><path d="M300,480c-99.252,0-180-80.748-180-180c0-99.252,80.748-180,180-180c99.252,0,180,80.748,180,180     C480,399.252,399.252,480,300,480z M300,160c-77.196,0-140,62.804-140,140s62.804,140,140,140s140-62.804,140-140     S377.196,160,300,160z"></path></g></g></g></svg></svg> <defs><filter id="colors8725566100"><feColorMatrix type="matrix" values="0 0 0 0 0.0859375  0 0 0 0 0.5234375  0 0 0 0 0.79296875  0 0 0 1 0" class="icon-feColorMatrix "></feColorMatrix></filter> <filter id="colorsf9631822003"><feColorMatrix type="matrix" values="0 0 0 0 0.99609375  0 0 0 0 0.99609375  0 0 0 0 0.99609375  0 0 0 1 0" class="icon-fecolormatrix"></feColorMatrix></filter> <filter id="colorsb5899862"><feColorMatrix type="matrix" values="0 0 0 0 0  0 0 0 0 0  0 0 0 0 0  0 0 0 1 0" class="icon-fecolormatrix"></feColorMatrix></filter></defs></g></g> <g transform="translate(0,33.21599769592285)"><g fill-rule="" class="tp-name" transform="translate(0,0)"><g transform="scale(1)"><g><path d="M19.18-5.84C13.52-5.84 8.88-10.07 8.88-16.19 8.88-22.4 13.52-26.54 19.18-26.54 22.59-26.54 25.62-24.89 27.46-22.26L32.57-26.59C29.39-30.36 24.61-32.8 19.18-32.8 9.75-32.8 2.07-25.35 2.07-16.19 2.07-7.04 9.75 0.37 19.18 0.37 24.61 0.37 29.39-2.02 32.57-5.8L27.46-10.12C25.62-7.5 22.59-5.84 19.18-5.84ZM37.12 0L43.56 0 43.56-34.68 37.12-34.68ZM61.87-25.44C54.33-25.44 48.21-19.69 48.21-12.51 48.21-5.38 54.33 0.37 61.87 0.37 69.41 0.37 75.53-5.38 75.53-12.51 75.53-19.69 69.41-25.44 61.87-25.44ZM61.87-5.38C57.82-5.38 54.51-8.6 54.51-12.51 54.51-16.47 57.82-19.69 61.87-19.69 65.96-19.69 69.23-16.47 69.23-12.51 69.23-8.6 65.96-5.38 61.87-5.38ZM97.34-24.98L97.34-7.36C95.86-6.12 93.98-5.38 91.68-5.38 88.14-5.38 86.25-7.27 86.25-11.13L86.25-24.98 79.86-24.98 79.86-11.13C79.86-3.04 83.21 0.37 90.53 0.37 93.1 0.37 95.45-0.37 97.34-1.66L97.34 0 103.73 0 103.73-24.98ZM128.29-34.68L128.29-23.55C126.22-24.7 123.69-25.44 121.03-25.44 114.08-25.44 108.38-20.33 108.38-12.51 108.38-4.83 114.08 0.41 121.03 0.41 123.65 0.41 126.27-0.32 128.29-1.52L128.29 0 134.73 0 134.73-34.68ZM122.18-5.38C117.9-5.38 114.72-8.28 114.72-12.51 114.72-16.61 117.9-19.69 122.18-19.69 124.61-19.69 126.78-18.86 128.29-17.57L128.29-7.54C126.78-6.21 124.57-5.38 122.18-5.38Z" transform="translate(-2.069999933242798, 34.68000030517578)"></path></g> </g></g> <g fill-rule="" class="tp-slogan" fill="#ffffff" transform="translate(44.72999572753906,41.090003967285156)"> <g transform="scale(1, 1)"><g transform="scale(1)"><path d="M0.99 0L0.99-7.22L3.13-7.22Q3.68-7.22 4.14-7.12Q4.60-7.02 4.92-6.81Q5.25-6.60 5.43-6.26Q5.61-5.93 5.61-5.46L5.61-5.46Q5.61-4.92 5.30-4.48Q4.99-4.05 4.36-3.88L4.36-3.88L4.36-3.84Q5.15-3.72 5.59-3.29Q6.03-2.86 6.03-2.11L6.03-2.11Q6.03-1.58 5.83-1.19Q5.63-0.79 5.27-0.53Q4.91-0.26 4.40-0.13Q3.89 0 3.29 0L3.29 0L0.99 0ZM1.90-4.14L2.97-4.14Q3.90-4.14 4.31-4.46Q4.71-4.77 4.71-5.38L4.71-5.38Q4.71-5.97 4.28-6.23Q3.86-6.49 3.01-6.49L3.01-6.49L1.90-6.49L1.90-4.14ZM1.90-0.73L3.16-0.73Q4.09-0.73 4.61-1.07Q5.13-1.42 5.13-2.16L5.13-2.16Q5.13-2.83 4.62-3.14Q4.11-3.45 3.16-3.45L3.16-3.45L1.90-3.45L1.90-0.73ZM7.46 0L7.46-7.22L8.37-7.22L8.37-0.78L11.53-0.78L11.53 0L7.46 0ZM15.18 0.13L15.18 0.13Q14.50 0.13 13.93-0.13Q13.37-0.40 12.96-0.89Q12.55-1.38 12.33-2.07Q12.10-2.77 12.10-3.64L12.10-3.64Q12.10-4.51 12.33-5.20Q12.55-5.88 12.96-6.36Q13.37-6.84 13.93-7.09Q14.50-7.35 15.18-7.35L15.18-7.35Q15.86-7.35 16.43-7.09Q17.00-6.83 17.41-6.35Q17.82-5.87 18.05-5.19Q18.27-4.50 18.27-3.64L18.27-3.64Q18.27-2.77 18.05-2.07Q17.82-1.38 17.41-0.89Q17.00-0.40 16.43-0.13Q15.86 0.13 15.18 0.13ZM15.18-0.67L15.18-0.67Q15.66-0.67 16.05-0.88Q16.45-1.09 16.73-1.48Q17.01-1.87 17.16-2.41Q17.31-2.96 17.31-3.64L17.31-3.64Q17.31-4.31 17.16-4.85Q17.01-5.39 16.73-5.76Q16.45-6.14 16.05-6.34Q15.66-6.54 15.18-6.54L15.18-6.54Q14.70-6.54 14.31-6.34Q13.92-6.14 13.63-5.76Q13.35-5.39 13.20-4.85Q13.05-4.31 13.05-3.64L13.05-3.64Q13.05-2.96 13.20-2.41Q13.35-1.87 13.63-1.48Q13.92-1.09 14.31-0.88Q14.70-0.67 15.18-0.67ZM19.40-3.61L19.40-3.61Q19.40-4.48 19.65-5.17Q19.90-5.86 20.34-6.35Q20.79-6.83 21.39-7.09Q22-7.35 22.73-7.35L22.73-7.35Q23.47-7.35 23.97-7.07Q24.48-6.79 24.79-6.46L24.79-6.46L24.28-5.87Q24.00-6.16 23.64-6.35Q23.29-6.54 22.74-6.54L22.74-6.54Q22.19-6.54 21.75-6.34Q21.31-6.14 21.00-5.76Q20.69-5.38 20.52-4.84Q20.35-4.30 20.35-3.63L20.35-3.63Q20.35-2.95 20.51-2.40Q20.67-1.86 20.97-1.47Q21.27-1.09 21.72-0.88Q22.16-0.67 22.75-0.67L22.75-0.67Q23.13-0.67 23.48-0.79Q23.83-0.90 24.05-1.10L24.05-1.10L24.05-2.98L22.52-2.98L22.52-3.74L24.88-3.74L24.88-0.70Q24.53-0.34 23.95-0.10Q23.38 0.13 22.65 0.13L22.65 0.13Q21.93 0.13 21.34-0.12Q20.75-0.37 20.32-0.85Q19.89-1.33 19.65-2.03Q19.40-2.73 19.40-3.61ZM26.19-3.61L26.19-3.61Q26.19-4.48 26.44-5.17Q26.69-5.86 27.13-6.35Q27.58-6.83 28.18-7.09Q28.79-7.35 29.51-7.35L29.51-7.35Q30.26-7.35 30.76-7.07Q31.26-6.79 31.58-6.46L31.58-6.46L31.06-5.87Q30.79-6.16 30.43-6.35Q30.07-6.54 29.52-6.54L29.52-6.54Q28.97-6.54 28.53-6.34Q28.09-6.14 27.79-5.76Q27.48-5.38 27.31-4.84Q27.14-4.30 27.14-3.63L27.14-3.63Q27.14-2.95 27.30-2.40Q27.46-1.86 27.76-1.47Q28.06-1.09 28.51-0.88Q28.95-0.67 29.54-0.67L29.54-0.67Q29.92-0.67 30.27-0.79Q30.61-0.90 30.83-1.10L30.83-1.10L30.83-2.98L29.30-2.98L29.30-3.74L31.67-3.74L31.67-0.70Q31.32-0.34 30.74-0.10Q30.16 0.13 29.44 0.13L29.44 0.13Q28.72 0.13 28.13-0.12Q27.53-0.37 27.10-0.85Q26.68-1.33 26.43-2.03Q26.19-2.73 26.19-3.61ZM33.40 0L33.40-7.22L37.55-7.22L37.55-6.45L34.31-6.45L34.31-4.18L37.05-4.18L37.05-3.40L34.31-3.40L34.31-0.78L37.66-0.78L37.66 0L33.40 0ZM40.11-6.48L40.11-3.79L41.32-3.79Q42.16-3.79 42.61-4.14Q43.06-4.49 43.06-5.19L43.06-5.19Q43.06-5.91 42.61-6.19Q42.16-6.48 41.32-6.48L41.32-6.48L40.11-6.48ZM44.19 0L43.15 0L41.41-3.05L40.11-3.05L40.11 0L39.19 0L39.19-7.22L41.45-7.22Q42.00-7.22 42.47-7.11Q42.93-7.01 43.27-6.76Q43.60-6.52 43.79-6.14Q43.98-5.75 43.98-5.19L43.98-5.19Q43.98-4.34 43.54-3.84Q43.10-3.33 42.36-3.15L42.36-3.15L44.19 0Z" transform="translate(-0.99, 7.348)"></path></g></g></g></g></g></g><mask id="abdfceeb-6311-4260-8ca9-e8715ea8352f"><g fill="white"><g><rect fill-opacity="1" stroke-width="2" x="0" y="0" width="115" height="115" class="image-rect"></rect> <svg x="0" y="0" width="115" height="115" class="image-svg-svg primary" style="overflow: visible;" filter="url(#colorsf9631822003)"><svg xmlns="http://www.w3.org/2000/svg" xmlns:xlink="http://www.w3.org/1999/xlink" version="1.1" x="0px" y="0px" viewBox="40 40 520 520" style="enable-background:new 0 0 600 600;" xml:space="preserve"><g><g><g><path d="M300,560c-69.448,0-134.74-27.045-183.848-76.152C67.044,434.74,40,369.448,40,300     c0-69.449,27.044-134.74,76.152-183.848C165.26,67.044,230.551,40,300,40c69.448,0,134.74,27.045,183.848,76.152     S560,230.551,560,300c0,69.448-27.045,134.74-76.152,183.848S369.448,560,300,560z M300,80C178.691,80,80,178.691,80,300     s98.691,220,220,220s220-98.691,220-220S421.309,80,300,80z"></path></g><g><path d="M300,480c-99.252,0-180-80.748-180-180c0-99.252,80.748-180,180-180c99.252,0,180,80.748,180,180     C480,399.252,399.252,480,300,480z M300,160c-77.196,0-140,62.804-140,140s62.804,140,140,140s140-62.804,140-140     S377.196,160,300,160z"></path></g></g></g></svg></svg> <defs> </defs></g></g> <g transform="translate(-8.829994201660156,33.21599769592285)"><rect fill="black" fill-opacity="1" x="-3.5" y="-3.5" width="139.6599884033203" height="42.090003967285156"></rect><rect fill="black" fill-opacity="1" x="-3.5" y="-3.5" transform="translate(44.72999572753906,41.090003967285156)" width="50.19999694824219" height="14.480000495910645"></rect></g><g transform="translate(-8.829994201660156,33.21599769592285)" fill="black"><g fill-rule="" class="tp-name" transform="translate(0,0)"><g transform="scale(1)"><g><path d="M19.18-5.84C13.52-5.84 8.88-10.07 8.88-16.19 8.88-22.4 13.52-26.54 19.18-26.54 22.59-26.54 25.62-24.89 27.46-22.26L32.57-26.59C29.39-30.36 24.61-32.8 19.18-32.8 9.75-32.8 2.07-25.35 2.07-16.19 2.07-7.04 9.75 0.37 19.18 0.37 24.61 0.37 29.39-2.02 32.57-5.8L27.46-10.12C25.62-7.5 22.59-5.84 19.18-5.84ZM37.12 0L43.56 0 43.56-34.68 37.12-34.68ZM61.87-25.44C54.33-25.44 48.21-19.69 48.21-12.51 48.21-5.38 54.33 0.37 61.87 0.37 69.41 0.37 75.53-5.38 75.53-12.51 75.53-19.69 69.41-25.44 61.87-25.44ZM61.87-5.38C57.82-5.38 54.51-8.6 54.51-12.51 54.51-16.47 57.82-19.69 61.87-19.69 65.96-19.69 69.23-16.47 69.23-12.51 69.23-8.6 65.96-5.38 61.87-5.38ZM97.34-24.98L97.34-7.36C95.86-6.12 93.98-5.38 91.68-5.38 88.14-5.38 86.25-7.27 86.25-11.13L86.25-24.98 79.86-24.98 79.86-11.13C79.86-3.04 83.21 0.37 90.53 0.37 93.1 0.37 95.45-0.37 97.34-1.66L97.34 0 103.73 0 103.73-24.98ZM128.29-34.68L128.29-23.55C126.22-24.7 123.69-25.44 121.03-25.44 114.08-25.44 108.38-20.33 108.38-12.51 108.38-4.83 114.08 0.41 121.03 0.41 123.65 0.41 126.27-0.32 128.29-1.52L128.29 0 134.73 0 134.73-34.68ZM122.18-5.38C117.9-5.38 114.72-8.28 114.72-12.51 114.72-16.61 117.9-19.69 122.18-19.69 124.61-19.69 126.78-18.86 128.29-17.57L128.29-7.54C126.78-6.21 124.57-5.38 122.18-5.38Z" transform="translate(-2.069999933242798, 34.68000030517578)"></path></g> </g></g> <g fill-rule="" class="tp-slogan" transform="translate(44.72999572753906,41.090003967285156)" fill="white"> <g transform="scale(1, 1)"><g transform="scale(1)"><path d="M0.99 0L0.99-7.22L3.13-7.22Q3.68-7.22 4.14-7.12Q4.60-7.02 4.92-6.81Q5.25-6.60 5.43-6.26Q5.61-5.93 5.61-5.46L5.61-5.46Q5.61-4.92 5.30-4.48Q4.99-4.05 4.36-3.88L4.36-3.88L4.36-3.84Q5.15-3.72 5.59-3.29Q6.03-2.86 6.03-2.11L6.03-2.11Q6.03-1.58 5.83-1.19Q5.63-0.79 5.27-0.53Q4.91-0.26 4.40-0.13Q3.89 0 3.29 0L3.29 0L0.99 0ZM1.90-4.14L2.97-4.14Q3.90-4.14 4.31-4.46Q4.71-4.77 4.71-5.38L4.71-5.38Q4.71-5.97 4.28-6.23Q3.86-6.49 3.01-6.49L3.01-6.49L1.90-6.49L1.90-4.14ZM1.90-0.73L3.16-0.73Q4.09-0.73 4.61-1.07Q5.13-1.42 5.13-2.16L5.13-2.16Q5.13-2.83 4.62-3.14Q4.11-3.45 3.16-3.45L3.16-3.45L1.90-3.45L1.90-0.73ZM7.46 0L7.46-7.22L8.37-7.22L8.37-0.78L11.53-0.78L11.53 0L7.46 0ZM15.18 0.13L15.18 0.13Q14.50 0.13 13.93-0.13Q13.37-0.40 12.96-0.89Q12.55-1.38 12.33-2.07Q12.10-2.77 12.10-3.64L12.10-3.64Q12.10-4.51 12.33-5.20Q12.55-5.88 12.96-6.36Q13.37-6.84 13.93-7.09Q14.50-7.35 15.18-7.35L15.18-7.35Q15.86-7.35 16.43-7.09Q17.00-6.83 17.41-6.35Q17.82-5.87 18.05-5.19Q18.27-4.50 18.27-3.64L18.27-3.64Q18.27-2.77 18.05-2.07Q17.82-1.38 17.41-0.89Q17.00-0.40 16.43-0.13Q15.86 0.13 15.18 0.13ZM15.18-0.67L15.18-0.67Q15.66-0.67 16.05-0.88Q16.45-1.09 16.73-1.48Q17.01-1.87 17.16-2.41Q17.31-2.96 17.31-3.64L17.31-3.64Q17.31-4.31 17.16-4.85Q17.01-5.39 16.73-5.76Q16.45-6.14 16.05-6.34Q15.66-6.54 15.18-6.54L15.18-6.54Q14.70-6.54 14.31-6.34Q13.92-6.14 13.63-5.76Q13.35-5.39 13.20-4.85Q13.05-4.31 13.05-3.64L13.05-3.64Q13.05-2.96 13.20-2.41Q13.35-1.87 13.63-1.48Q13.92-1.09 14.31-0.88Q14.70-0.67 15.18-0.67ZM19.40-3.61L19.40-3.61Q19.40-4.48 19.65-5.17Q19.90-5.86 20.34-6.35Q20.79-6.83 21.39-7.09Q22-7.35 22.73-7.35L22.73-7.35Q23.47-7.35 23.97-7.07Q24.48-6.79 24.79-6.46L24.79-6.46L24.28-5.87Q24.00-6.16 23.64-6.35Q23.29-6.54 22.74-6.54L22.74-6.54Q22.19-6.54 21.75-6.34Q21.31-6.14 21.00-5.76Q20.69-5.38 20.52-4.84Q20.35-4.30 20.35-3.63L20.35-3.63Q20.35-2.95 20.51-2.40Q20.67-1.86 20.97-1.47Q21.27-1.09 21.72-0.88Q22.16-0.67 22.75-0.67L22.75-0.67Q23.13-0.67 23.48-0.79Q23.83-0.90 24.05-1.10L24.05-1.10L24.05-2.98L22.52-2.98L22.52-3.74L24.88-3.74L24.88-0.70Q24.53-0.34 23.95-0.10Q23.38 0.13 22.65 0.13L22.65 0.13Q21.93 0.13 21.34-0.12Q20.75-0.37 20.32-0.85Q19.89-1.33 19.65-2.03Q19.40-2.73 19.40-3.61ZM26.19-3.61L26.19-3.61Q26.19-4.48 26.44-5.17Q26.69-5.86 27.13-6.35Q27.58-6.83 28.18-7.09Q28.79-7.35 29.51-7.35L29.51-7.35Q30.26-7.35 30.76-7.07Q31.26-6.79 31.58-6.46L31.58-6.46L31.06-5.87Q30.79-6.16 30.43-6.35Q30.07-6.54 29.52-6.54L29.52-6.54Q28.97-6.54 28.53-6.34Q28.09-6.14 27.79-5.76Q27.48-5.38 27.31-4.84Q27.14-4.30 27.14-3.63L27.14-3.63Q27.14-2.95 27.30-2.40Q27.46-1.86 27.76-1.47Q28.06-1.09 28.51-0.88Q28.95-0.67 29.54-0.67L29.54-0.67Q29.92-0.67 30.27-0.79Q30.61-0.90 30.83-1.10L30.83-1.10L30.83-2.98L29.30-2.98L29.30-3.74L31.67-3.74L31.67-0.70Q31.32-0.34 30.74-0.10Q30.16 0.13 29.44 0.13L29.44 0.13Q28.72 0.13 28.13-0.12Q27.53-0.37 27.10-0.85Q26.68-1.33 26.43-2.03Q26.19-2.73 26.19-3.61ZM33.40 0L33.40-7.22L37.55-7.22L37.55-6.45L34.31-6.45L34.31-4.18L37.05-4.18L37.05-3.40L34.31-3.40L34.31-0.78L37.66-0.78L37.66 0L33.40 0ZM40.11-6.48L40.11-3.79L41.32-3.79Q42.16-3.79 42.61-4.14Q43.06-4.49 43.06-5.19L43.06-5.19Q43.06-5.91 42.61-6.19Q42.16-6.48 41.32-6.48L41.32-6.48L40.11-6.48ZM44.19 0L43.15 0L41.41-3.05L40.11-3.05L40.11 0L39.19 0L39.19-7.22L41.45-7.22Q42.00-7.22 42.47-7.11Q42.93-7.01 43.27-6.76Q43.60-6.52 43.79-6.14Q43.98-5.75 43.98-5.19L43.98-5.19Q43.98-4.34 43.54-3.84Q43.10-3.33 42.36-3.15L42.36-3.15L44.19 0Z" transform="translate(-0.99, 7.348)"></path></g></g></g></g></mask><defs v-gra="od"></defs></g></svg>