<?xml version="1.0" encoding="utf-8"?>
<!-- Generator: Adobe Illustrator 22.0.0, SVG Export Plug-In . SVG Version: 6.00 Build 0)  -->
<svg version="1.1" id="Icon_Set" xmlns="http://www.w3.org/2000/svg" xmlns:xlink="http://www.w3.org/1999/xlink" x="0px" y="0px"
	 viewBox="0 0 64 64" style="enable-background:new 0 0 64 64;" xml:space="preserve">
<style type="text/css">
	.st0{fill:#40C4FF;}
	.st1{fill:#263238;}
	.st2{fill:#FFD740;}
	.st3{fill:#FF5252;}
	.st4{fill:#4DB6AC;}
	.st5{fill:#FFFFFF;}
	.st6{fill:#4FC3F7;}
	.st7{fill:#37474F;}
</style>
<g>
	<g>
		<rect x="15.498" y="40.692" class="st4" width="33" height="4.808"/>
		<path class="st1" d="M48.498,46h-33c-0.276,0-0.5-0.224-0.5-0.5v-4.808c0-0.276,0.224-0.5,0.5-0.5h33c0.276,0,0.5,0.224,0.5,0.5
			V45.5C48.998,45.776,48.774,46,48.498,46z M15.998,45h32v-3.808h-32V45z"/>
	</g>
	<g>
		<path class="st1" d="M8.5,19C3.813,19,0,15.187,0,10.5S3.813,2,8.5,2S17,5.813,17,10.5S13.187,19,8.5,19z M8.5,3
			C4.364,3,1,6.364,1,10.5S4.364,18,8.5,18s7.5-3.364,7.5-7.5S12.636,3,8.5,3z"/>
	</g>
	<g>
		<path class="st2" d="M14.047,5.874l0.596-0.496C13.176,3.62,10.969,2.5,8.5,2.5c-4.418,0-8,3.582-8,8h0.755
			C5.929,10.5,10.455,8.863,14.047,5.874z"/>
		<path class="st1" d="M1.255,11H0.5C0.224,11,0,10.776,0,10.5C0,5.813,3.813,2,8.5,2c2.525,0,4.905,1.114,6.527,3.058
			c0.085,0.102,0.126,0.233,0.114,0.365c-0.012,0.133-0.076,0.255-0.179,0.34l-0.597,0.496C10.692,9.316,6.036,11,1.255,11z
			 M1.017,10h0.238c4.548,0,8.978-1.602,12.472-4.511c0.001,0,0.001,0,0.001,0l0.198-0.165C12.512,3.841,10.562,3,8.5,3
			C4.532,3,1.274,6.097,1.017,10z"/>
	</g>
	<g>
		<path class="st1" d="M1.5,62C1.224,62,1,61.776,1,61.5V54c0-1.654,1.346-3,3-3h11.5c0.276,0,0.5,0.224,0.5,0.5S15.776,52,15.5,52
			H4c-1.103,0-2,0.897-2,2v7.5C2,61.776,1.776,62,1.5,62z"/>
	</g>
	<g>
		<path class="st1" d="M23.5,41.192h-15c-1.654,0-3-1.346-3-3v-10c0-0.276,0.224-0.5,0.5-0.5s0.5,0.224,0.5,0.5v10
			c0,1.103,0.897,2,2,2H23v-4H11c-0.276,0-0.5-0.224-0.5-0.5v-7.5c0-0.276,0.224-0.5,0.5-0.5s0.5,0.224,0.5,0.5v7h12
			c0.276,0,0.5,0.224,0.5,0.5v5C24,40.969,23.776,41.192,23.5,41.192z"/>
	</g>
	<g>
		<path class="st1" d="M20.5,62c-0.276,0-0.5-0.224-0.5-0.5V54c0-1.103-0.897-2-2-2H6.5C3.468,52,1,49.532,1,46.5V26.419
			c0-1.361,0.501-2.668,1.411-3.68l3.217-3.574c0.154-0.169,0.404-0.214,0.604-0.107l4.158,2.188C13.851,23.067,16,26.628,16,30.537
			v3.155c0,0.276-0.224,0.5-0.5,0.5s-0.5-0.224-0.5-0.5v-3.155c0-3.537-1.944-6.758-5.075-8.406l-3.813-2.007l-2.956,3.285
			C2.41,24.236,2,25.306,2,26.419V46.5C2,48.981,4.019,51,6.5,51H18c1.654,0,3,1.346,3,3v7.5C21,61.776,20.776,62,20.5,62z"/>
	</g>
	<g>
		<path class="st1" d="M11,22.5h-0.338c-0.092,0-0.182-0.025-0.26-0.072l-0.195-0.124c-0.092-0.061-0.184-0.121-0.282-0.173
			l-4.157-2.188C5.603,19.856,5.5,19.686,5.5,19.5v-1.404c0-0.16,0.077-0.311,0.207-0.405s0.298-0.123,0.449-0.069
			c1.531,0.502,3.156,0.502,4.688,0c0.149-0.054,0.319-0.025,0.449,0.069s0.207,0.245,0.207,0.405V22
			C11.5,22.276,11.276,22.5,11,22.5z M6.5,19.198l3.891,2.048c0.037,0.02,0.073,0.04,0.109,0.061v-2.548c-1.316,0.32-2.684,0.32-4,0
			V19.198z"/>
	</g>
	<g>
		<path class="st1" d="M26.5,62c-0.276,0-0.5-0.224-0.5-0.5v-8.612C26,49.09,22.91,46,19.112,46H1.5C1.224,46,1,45.776,1,45.5
			S1.224,45,1.5,45h17.612C23.462,45,27,48.538,27,52.888V61.5C27,61.776,26.776,62,26.5,62z"/>
	</g>
	<g>
		<path class="st1" d="M25.507,41.191c-0.225,0-0.43-0.151-0.486-0.378c-0.066-0.269,0.094-0.539,0.362-0.606
			c0.039-0.01,0.084-0.016,0.124-0.016c1.102-0.002,1.997-0.898,1.997-2c0-0.535-0.208-1.037-0.587-1.415
			c-0.371-0.37-0.861-0.577-1.384-0.585c-0.051,0.006-0.101-0.002-0.15-0.014l-0.004-0.001c-0.245-0.062-0.406-0.296-0.375-0.546
			c0.03-0.254,0.222-0.45,0.5-0.439c0.801,0,1.554,0.312,2.12,0.877c0.567,0.567,0.88,1.321,0.88,2.123c0,1.647-1.337,2.991-2.983,3
			C25.517,41.191,25.512,41.191,25.507,41.191z"/>
	</g>
	<g>
		<path class="st1" d="M55.5,19c-4.687,0-8.5-3.813-8.5-8.5S50.813,2,55.5,2S64,5.813,64,10.5S60.187,19,55.5,19z M55.5,3
			C51.364,3,48,6.364,48,10.5s3.364,7.5,7.5,7.5s7.5-3.364,7.5-7.5S59.636,3,55.5,3z"/>
	</g>
	<g>
		<path class="st2" d="M49.953,5.874l-0.596-0.496C50.824,3.62,53.031,2.5,55.5,2.5c4.418,0,8,3.582,8,8h-0.755
			C58.071,10.5,53.545,8.863,49.953,5.874z"/>
		<path class="st1" d="M63.5,11h-0.755c-4.781,0-9.438-1.684-13.112-4.741h0.001l-0.597-0.496c-0.103-0.085-0.167-0.207-0.179-0.34
			c-0.012-0.132,0.029-0.264,0.114-0.365C50.595,3.114,52.975,2,55.5,2c4.687,0,8.5,3.813,8.5,8.5C64,10.776,63.776,11,63.5,11z
			 M50.074,5.324l0.198,0.165c0,0,0,0,0.001,0C53.768,8.398,58.197,10,62.745,10h0.238c-0.258-3.903-3.516-7-7.483-7
			C53.438,3,51.488,3.841,50.074,5.324z"/>
	</g>
	<g>
		<path class="st1" d="M62.5,62c-0.276,0-0.5-0.224-0.5-0.5V54c0-1.103-0.897-2-2-2H48.5c-0.276,0-0.5-0.224-0.5-0.5
			s0.224-0.5,0.5-0.5H60c1.654,0,3,1.346,3,3v7.5C63,61.776,62.776,62,62.5,62z"/>
	</g>
	<g>
		<path class="st1" d="M55.5,41.192h-15c-0.276,0-0.5-0.224-0.5-0.5v-5c0-0.276,0.224-0.5,0.5-0.5h12v-7c0-0.276,0.224-0.5,0.5-0.5
			s0.5,0.224,0.5,0.5v7.5c0,0.276-0.224,0.5-0.5,0.5H41v4h14.5c1.103,0,2-0.897,2-2v-10c0-0.276,0.224-0.5,0.5-0.5
			s0.5,0.224,0.5,0.5v10C58.5,39.847,57.154,41.192,55.5,41.192z"/>
	</g>
	<g>
		<path class="st1" d="M43.5,62c-0.276,0-0.5-0.224-0.5-0.5V54c0-1.654,1.346-3,3-3h11.5c2.481,0,4.5-2.019,4.5-4.5V26.419
			c0-1.113-0.41-2.183-1.155-3.01l-2.956-3.285l-3.814,2.007C50.944,23.779,49,27,49,30.537v3.155c0,0.276-0.224,0.5-0.5,0.5
			s-0.5-0.224-0.5-0.5v-3.155c0-3.909,2.149-7.47,5.608-9.291l4.159-2.188c0.201-0.106,0.451-0.062,0.604,0.107l3.217,3.574
			c0.91,1.012,1.411,2.318,1.411,3.68V46.5c0,3.032-2.468,5.5-5.5,5.5H46c-1.103,0-2,0.897-2,2v7.5C44,61.776,43.776,62,43.5,62z"/>
	</g>
	<g>
		<path class="st1" d="M53.338,22.5H53c-0.276,0-0.5-0.224-0.5-0.5v-3.904c0-0.16,0.077-0.311,0.207-0.405
			c0.129-0.095,0.299-0.123,0.449-0.069c1.531,0.502,3.156,0.502,4.688,0c0.15-0.054,0.319-0.025,0.449,0.069
			s0.207,0.245,0.207,0.405V19.5c0,0.186-0.103,0.356-0.268,0.442l-4.156,2.188c-0.1,0.052-0.191,0.112-0.283,0.173l-0.195,0.124
			C53.52,22.475,53.43,22.5,53.338,22.5z M53.5,18.759v2.548c0.036-0.021,0.073-0.041,0.11-0.061l3.89-2.048v-0.439
			C56.184,19.079,54.816,19.079,53.5,18.759z"/>
	</g>
	<g>
		<path class="st1" d="M37.5,62c-0.276,0-0.5-0.224-0.5-0.5v-8.612C37,48.538,40.538,45,44.888,45H62.5c0.276,0,0.5,0.224,0.5,0.5
			S62.776,46,62.5,46H44.888C41.09,46,38,49.09,38,52.888V61.5C38,61.776,37.776,62,37.5,62z"/>
	</g>
	<g>
		<path class="st1" d="M38.496,41.192c-0.012,0-0.023,0-0.035-0.001c-1.638-0.02-2.965-1.358-2.965-3
			c0-0.802,0.312-1.556,0.88-2.123c0.566-0.565,1.319-0.877,2.12-0.877c0.002,0,0.003,0,0.005,0c0.252,0,0.465,0.188,0.495,0.439
			c0.031,0.25-0.13,0.484-0.375,0.546c-0.045,0.011-0.088,0.015-0.134,0.015c-0.53,0.002-1.028,0.21-1.404,0.585
			c-0.379,0.378-0.587,0.88-0.587,1.415c0,1.102,0.896,1.998,1.997,2c0.04,0,0.081,0.005,0.12,0.015
			c0.269,0.067,0.433,0.339,0.366,0.607C38.923,41.04,38.72,41.192,38.496,41.192z"/>
	</g>
	<g>
		<polygon class="st0" points="41,19 41,17 23,17 23,24 41,24 41,22 44,20.5 		"/>
		<path class="st1" d="M41,24.5H23c-0.276,0-0.5-0.224-0.5-0.5v-7c0-0.276,0.224-0.5,0.5-0.5h18c0.276,0,0.5,0.224,0.5,0.5v1.691
			l2.724,1.361c0.169,0.085,0.276,0.258,0.276,0.447s-0.107,0.362-0.276,0.447L41.5,22.309V24C41.5,24.276,41.276,24.5,41,24.5z
			 M23.5,23.5h17V22c0-0.189,0.107-0.362,0.276-0.447l2.105-1.053l-2.105-1.053C40.607,19.362,40.5,19.189,40.5,19v-1.5h-17V23.5z"
			/>
	</g>
	<g>
		<path class="st1" d="M38,20H26c-0.276,0-0.5-0.224-0.5-0.5S25.724,19,26,19h12c0.276,0,0.5,0.224,0.5,0.5S38.276,20,38,20z"/>
	</g>
	<g>
		<path class="st1" d="M33,22h-7c-0.276,0-0.5-0.224-0.5-0.5S25.724,21,26,21h7c0.276,0,0.5,0.224,0.5,0.5S33.276,22,33,22z"/>
	</g>
	<g>
		<polygon class="st3" points="23,5 23,3 41,3 41,10 23,10 23,8 20,6.5 		"/>
		<path class="st1" d="M41,10.5H23c-0.276,0-0.5-0.224-0.5-0.5V8.309l-2.724-1.361C19.607,6.862,19.5,6.689,19.5,6.5
			s0.107-0.362,0.276-0.447L22.5,4.691V3c0-0.276,0.224-0.5,0.5-0.5h18c0.276,0,0.5,0.224,0.5,0.5v7
			C41.5,10.276,41.276,10.5,41,10.5z M23.5,9.5h17v-6h-17V5c0,0.189-0.107,0.362-0.276,0.447L21.118,6.5l2.105,1.053
			C23.393,7.638,23.5,7.811,23.5,8V9.5z M23,5h0.01H23z"/>
	</g>
	<g>
		<line class="st3" x1="38" y1="5.5" x2="26" y2="5.5"/>
		<path class="st1" d="M38,6H26c-0.276,0-0.5-0.224-0.5-0.5S25.724,5,26,5h12c0.276,0,0.5,0.224,0.5,0.5S38.276,6,38,6z"/>
	</g>
	<g>
		<line class="st3" x1="38" y1="7.5" x2="31" y2="7.5"/>
		<path class="st1" d="M38,8h-7c-0.276,0-0.5-0.224-0.5-0.5S30.724,7,31,7h7c0.276,0,0.5,0.224,0.5,0.5S38.276,8,38,8z"/>
	</g>
	<g>
		<path class="st1" d="M53.5,59.5h-5c-0.276,0-0.5-0.224-0.5-0.5s0.224-0.5,0.5-0.5h5c0.276,0,0.5,0.224,0.5,0.5
			S53.776,59.5,53.5,59.5z"/>
	</g>
	<g>
		<path class="st1" d="M56.5,59.5h-1c-0.276,0-0.5-0.224-0.5-0.5s0.224-0.5,0.5-0.5h1c0.276,0,0.5,0.224,0.5,0.5
			S56.776,59.5,56.5,59.5z"/>
	</g>
	<g>
		<path class="st1" d="M15.5,59.5h-5c-0.276,0-0.5-0.224-0.5-0.5s0.224-0.5,0.5-0.5h5c0.276,0,0.5,0.224,0.5,0.5
			S15.776,59.5,15.5,59.5z"/>
	</g>
	<g>
		<path class="st1" d="M8.5,59.5h-1C7.224,59.5,7,59.276,7,59s0.224-0.5,0.5-0.5h1C8.776,58.5,9,58.724,9,59S8.776,59.5,8.5,59.5z"
			/>
	</g>
</g>
</svg>
